<?xml version="1.0" encoding="utf-8"?>
<!-- Generator: Adobe Illustrator 23.1.0, SVG Export Plug-In . SVG Version: 6.00 Build 0)  -->
<svg version="1.1" id="Слой_1" xmlns="http://www.w3.org/2000/svg" xmlns:xlink="http://www.w3.org/1999/xlink" x="0px" y="0px"
	 viewBox="0 0 672.2 757.9" style="enable-background:new 0 0 672.2 757.9;" xml:space="preserve">
<style type="text/css">
	.st0{fill:#666666;}
	.st1{fill:#9EA39F;}
	.st2{fill:#FFD22A;}
	.st3{fill:#009900;}
	.st4{fill:#FFFFFF;}
	.st5{fill:#00FF00;}
	.st6{fill:#6A4700;}
	.st7{fill:#005978;}
	.st8{fill:none;stroke:#000000;stroke-width:5;stroke-miterlimit:10;}
	.st9{fill:none;stroke:#000000;stroke-width:5;stroke-linecap:round;stroke-linejoin:round;}
	.st10{fill:none;stroke:#000000;stroke-width:3;stroke-miterlimit:10;}
	.st11{fill:none;stroke:#000000;stroke-width:3;stroke-linecap:round;stroke-linejoin:round;}
</style>
<g id="XMLID_2_">
	<g>
		<path class="st0" d="M379.5,438.2c22.4,20.3,51.1,52.6,67,99c6.6,19.2,8.6,34.1,10,43c0.1,0.6,0.2,1.3,0.3,1.9
			c0.3,1.9,0.6,3.9,1,6c0.1,0.7,0.2,1.4,0.3,2.1c0.1,0.7,0.2,1.4,0.4,2.1c0,0,0,0,0,0c3.1,18.3,7.8,40,14.7,65.7
			c7.4,27.5,17.5,59.4,31.3,96.2c-11.3-3.2-136.1-39.5-196.2-109.5c51.3-40,59.6-55.5,56.6-62c-0.9-2-4.2-6-5.4-13.1
			c-1-6,0.6-7.4-0.3-15c-0.9-7.5-2.6-7-3-13.6s1.2-8,0-13.6c-1-4.8-2.3-4.5-3-8.9c-0.8-5.7,1.2-7.5-0.3-11.7c-1.3-3.6-3-3.2-4.6-6.6
			c-2.5-5.4,1.2-7.7,0.2-14.9c-0.9-6.3-4.1-6.5-6.2-14.9c-1.5-6-0.6-8.7-1.2-10.3c-2.4-5.7-27.3-3.9-111.8,20.9h0
			c-11.6-16.5-25.4-28.3-37.2-36.4l0,0c8.2-12.9,33.9-49.2,83.5-68.6c45.6-17.9,85.7-11.3,101-8l0.2,0c-1.4,6-2.5,12.7-3,20
			C372.1,409.5,376,426.9,379.5,438.2z"/>
		<path class="st1" d="M226.1,356.1c0,0,93.9-11.6,153.4,1.2c-1,3.3-2.1,7-3,11l-0.2,0c-15.3-3.3-55.3-9.9-101,8
			c-49.6,19.4-75.2,55.8-83.5,68.6l0,0c-1.9-1.3-3.7-2.5-5.4-3.6l-179-42C93.7,375.8,168.3,363.3,226.1,356.1z"/>
		<path class="st2" d="M669.5,368.2c0.8,2.6-0.5,6.2-3.8,9.4c0.3-0.4,0.7-0.8,1-1.3C668.6,373.4,669.3,370.4,669.5,368.2z"/>
		<path class="st2" d="M669.5,368.2L595,379h0c0.8-7.6-1.7-14.6-2.5-16.8c20,0,40,0,60,0C661.1,361.2,668.3,364.2,669.5,368.2z
			 M604.7,370.9c0.4-0.6-0.4-1.8-1.6-2.5c-1.3-0.7-2.6-0.8-3-0.2c-0.4,0.6,0.4,1.8,1.6,2.5C603,371.4,604.3,371.5,604.7,370.9z"/>
		<path class="st2" d="M595,379l74.5-10.8c-9.6,4.4-9.9,4.6-9.9,4.6C654.5,375.1,639.2,377.6,595,379z"/>
		<path class="st2" d="M669.5,368.2c-0.3,2.2-0.9,5.2-2.8,8.1c-0.3,0.5-0.6,0.9-1,1.3c-2.8,2.8-6.9,5.2-12.2,6.6
			c-7.3,0.9-15.8,1.9-25.3,3.1c-10,0.8-23.2,2.2-38.9,4.8c0.9-1,1.7-2,2.3-3c2-3.2,3-6.7,3.4-10.1h0c44.2-1.3,59.6-3.9,64.6-6.2
			C659.6,372.8,659.9,372.6,669.5,368.2z"/>
		<path class="st2" d="M628.2,387.3c-11.5,1.4-24.6,3-39,4.9c0-0.1,0.1-0.1,0.1-0.1C605,389.5,618.1,388.1,628.2,387.3z"/>
		<path class="st1" d="M619,724c-0.1,0-0.3-0.1-0.5-0.1c-8.8-2.6-62.6-18.4-115.7-47.8c-2-1.1-4-2.2-6-3.4c-2-1.1-4-2.3-6-3.5
			c-6-3.5-11.9-7.3-17.7-11.2c-4.3-15.8-7.7-30.1-10.4-43.1c-1.5-7.3-2.9-14.1-4-20.5c-0.1-0.7-0.3-1.4-0.4-2.1
			c-0.1-0.7-0.2-1.4-0.4-2.1c-0.1-0.7-0.2-1.4-0.3-2.1c-0.3-2-0.7-4-1-6c-0.1-0.7-0.2-1.3-0.3-1.9c-1.4-8.9-3.4-23.8-10-43
			c-15.9-46.4-44.6-78.7-67-99c35.6-13.9,65.7-22.1,87-27c1.7-0.4,3.8-0.9,6.6-1.5c0.2,0,0.5-0.1,0.7-0.1c0.5-0.1,1-0.2,1.5-0.3
			c0.3,0,0.5-0.1,0.8-0.2c0.5-0.1,1.1-0.2,1.7-0.3c2-0.4,4.3-0.8,6.9-1.3c0.4-0.1,0.8-0.1,1.2-0.2c0.8-0.1,1.6-0.3,2.4-0.4
			c1.7-0.3,3.4-0.6,5.3-0.9l0.4,2.1c22.4,20.3,51.1,52.6,67,99c5.5,16.2,7.8,29.3,9.3,38.4c0.2,1,0.3,2,0.4,2.9
			c0.1,0.6,0.2,1.2,0.3,1.7C576.8,588.3,589.4,645,619,724z"/>
		<path d="M603,368.4c1.3,0.7,2,1.9,1.6,2.5c-0.4,0.6-1.7,0.6-3-0.2c-1.3-0.7-2-1.9-1.6-2.5C600.4,367.6,601.8,367.6,603,368.4z"/>
		<path class="st3" d="M592.5,362.2c0.8,2.1,3.3,9.1,2.5,16.8c-0.4,3.4-1.4,6.8-3.4,10.1c-0.6,1-1.4,2-2.3,3
			c-0.4,0.1-0.8,0.1-1.1,0.2c1.4-10.3,2.7-20.5,4.1-30.8C592.3,361.7,592.4,361.9,592.5,362.2z"/>
		<path class="st3" d="M592.3,361.4C592.3,361.4,592.3,361.4,592.3,361.4c-1.4,10.3-2.7,20.6-4.1,30.8c-0.9,0.1-1.8,0.3-2.6,0.4
			c-3.9,0.5-7.9,1-12,1.6c-39.3,5.2-63.9,9-79.9,11.7c-1.9,0.3-3.7,0.6-5.3,0.9c-0.8,0.1-1.6,0.3-2.4,0.4c-0.4,0.1-0.8,0.1-1.2,0.2
			c-2.6,0.5-4.9,0.9-6.9,1.3c-0.6,0.1-1.1,0.2-1.7,0.3c-0.3,0-0.6,0.1-0.8,0.2c-0.5,0.1-1,0.2-1.5,0.3c-0.1,0-0.2,0-0.3,0l-0.3-1.6
			c-5.5-0.8-14.3-2.5-24-7.4c-16.7-8.3-25.9-20.8-27.8-23.1l22.5-81.7c11.8,4.1,21.8,8.5,29.7,12.4c2.8-0.8,62.5-17.8,99,19
			C583.7,338.5,589.4,351.5,592.3,361.4z M567.6,354.4c3.1-2.2,3.1-7.6-0.1-12.2c-3.2-4.6-8.3-6.5-11.4-4.3
			c-3.1,2.2-3.1,7.6,0.1,12.2C559.3,354.6,564.4,356.6,567.6,354.4z"/>
		<path class="st4" d="M589.3,392c0,0-0.1,0.1-0.1,0.1c-0.3,0-0.7,0.1-1,0.1c0,0,0-0.1,0-0.1C588.5,392.1,588.9,392.1,589.3,392z"/>
		<path class="st4" d="M588.1,392.3c0.3,0,0.7-0.1,1-0.1c-0.4,0.4-0.7,0.8-1.2,1.2C588,393,588.1,392.6,588.1,392.3z"/>
		<path class="st5" d="M588.2,392.2c0,0,0,0.1,0,0.1c-0.9,0.1-1.7,0.2-2.6,0.3C586.4,392.5,587.3,392.3,588.2,392.2z"/>
		<path d="M567.5,342.2c3.2,4.6,3.2,10,0.1,12.2c-3.1,2.2-8.2,0.2-11.4-4.3c-3.2-4.6-3.2-10-0.1-12.2
			C559.2,335.7,564.3,337.6,567.5,342.2z"/>
		<path class="st5" d="M502.9,676.1c53.1,29.4,106.9,45.2,115.7,47.8C609.7,721.4,555.9,705.4,502.9,676.1z"/>
		<path class="st5" d="M496.9,672.7c2,1.1,4,2.3,6,3.4C500.9,675,498.9,673.8,496.9,672.7z"/>
		<path class="st5" d="M490.9,669.2c2,1.2,4,2.4,6,3.5C494.9,671.5,492.9,670.4,490.9,669.2z"/>
		<path class="st6" d="M473.5,409.6c-0.1,0-0.3,0.1-0.4,0.1c-2.8,0.6-4.9,1.1-6.6,1.5c-21.3,4.9-51.4,13.1-87,27
			c-3.5-11.3-7.4-28.7-5.9-49.9c0.5-7.4,1.6-14.1,3-20c0.9-4,1.9-7.6,3-11c13,2.8,24.4,6.7,32.8,12.2c3.6,2.4,6.7,5,9.1,8
			c1.9,2.4,11.1,14.8,27.8,23.1c9.7,4.8,18.5,6.6,24,7.4L473.5,409.6z"/>
		<path class="st5" d="M458.5,592.3c0.1,0.7,0.3,1.4,0.4,2.1C458.7,593.7,458.6,593,458.5,592.3
			C458.5,592.3,458.5,592.3,458.5,592.3z"/>
		<path class="st5" d="M458.1,590.2c0.1,0.7,0.2,1.4,0.4,2.1C458.3,591.6,458.2,590.9,458.1,590.2z"/>
		<path class="st1" d="M443.8,295.8l-22.5,81.7c-2.4-3-5.5-5.6-9.1-8l20.3-77.4C436.5,293.4,440.3,294.6,443.8,295.8z"/>
		<path class="st0" d="M432.6,292.2l-20.3,77.4c-8.4-5.5-19.8-9.5-32.8-12.2c-59.5-12.8-153.4-1.2-153.4-1.2
			c-57.8,7.1-132.4,19.7-218.6,43.1c30-15.3,60-30.7,90-46c76.1-37.5,141.6-54.6,186-63c63.8-12.1,100.3-9.5,130-3
			C420.2,288.7,426.6,290.4,432.6,292.2z"/>
		<path class="st7" d="M364.8,582.7c3,6.5-5.3,22-56.6,62c-3.5-4-6.8-8.2-9.8-12.5c-26.4-37.6-38-68-38-68
			c-12.2-32.1-11.1-48.6-25-73c-2-3.5-4.1-6.9-6.4-10.1h0c84.5-24.9,109.5-26.6,111.8-20.9c0.7,1.6-0.3,4.3,1.2,10.3
			c2.1,8.3,5.3,8.6,6.2,14.9c1,7.1-2.6,9.5-0.2,14.9c1.6,3.5,3.3,3,4.6,6.6c1.5,4.3-0.5,6,0.3,11.7c0.6,4.4,1.9,4.1,3,8.9
			c1.2,5.7-0.4,7,0,13.6s2.1,6.1,3,13.6c0.9,7.6-0.7,9,0.3,15C360.6,576.7,363.9,580.8,364.8,582.7z"/>
	</g>
	<g>
		<path class="st8" d="M485.9,407.3c0.8-0.1,1.6-0.3,2.4-0.4"/>
		<path class="st8" d="M477.8,408.8c2-0.4,4.3-0.8,6.9-1.3"/>
		<path class="st8" d="M475.3,409.3c0.3,0,0.5-0.1,0.8-0.2"/>
		<path class="st8" d="M473.1,409.7c0.2,0,0.5-0.1,0.7-0.1"/>
		<path class="st8" d="M458.8,594.4c-0.1-0.7-0.3-1.4-0.4-2.1"/>
		<path class="st8" d="M457.8,588.1c-0.3-2-0.7-4-1-6"/>
		<path class="st8" d="M473.2,658c-4.3-15.8-7.7-30.1-10.4-43.1c-1.5-7.3-2.9-14.1-4-20.5c-0.1-0.7-0.3-1.4-0.4-2.1
			c-0.1-0.7-0.2-1.4-0.4-2.1"/>
		<path class="st9" d="M473.2,658c5.8,3.9,11.7,7.6,17.7,11.2c2,1.2,4,2.4,6,3.5c2,1.1,4,2.3,6,3.4c53.1,29.4,106.9,45.2,115.7,47.8
			c0.2,0.1,0.3,0.1,0.5,0.1c-29.6-79-42.2-135.7-48-174c-0.1-0.6-0.2-1.1-0.3-1.7c-0.1-0.9-0.3-1.9-0.4-2.9
			c-1.4-9.1-3.7-22.2-9.3-38.4c-15.9-46.4-44.6-78.7-67-99"/>
		<path class="st8" d="M592.5,362.2c0.8,2.1,3.3,9.1,2.5,16.8c-0.4,3.4-1.4,6.8-3.4,10.1c-0.6,1-1.4,2-2.3,3c0,0-0.1,0.1-0.1,0.1
			c-0.4,0.4-0.7,0.8-1.2,1.2"/>
		<path class="st10" d="M595,379c44.2-1.3,59.6-3.9,64.6-6.2c0,0,0.3-0.2,9.9-4.6"/>
		<path class="st10" d="M600.1,368.2c0.4-0.6,1.7-0.6,3,0.2c1.3,0.7,2,1.9,1.6,2.5c-0.4,0.6-1.7,0.6-3-0.2
			C600.4,370,599.7,368.8,600.1,368.2z"/>
		<path class="st9" d="M556.1,350c-3.2-4.6-3.2-10-0.1-12.2c3.1-2.2,8.2-0.2,11.4,4.3c3.2,4.6,3.2,10,0.1,12.2
			C564.4,356.6,559.3,354.6,556.1,350z"/>
		<path class="st8" d="M458.5,592.3C458.5,592.3,458.5,592.3,458.5,592.3"/>
		<path class="st8" d="M457.8,588.1c0.1,0.7,0.2,1.4,0.3,2.1"/>
		<path class="st8" d="M475.3,409.3c-0.5,0.1-1,0.2-1.5,0.3c-0.1,0-0.2,0-0.3,0c-0.1,0-0.3,0.1-0.4,0.1c-2.8,0.6-4.9,1.1-6.6,1.5
			c-21.3,4.9-51.4,13.1-87,27c22.4,20.3,51.1,52.6,67,99c6.6,19.2,8.6,34.1,10,43c0.1,0.6,0.2,1.3,0.3,1.9"/>
		<path class="st8" d="M477.8,408.8c-0.6,0.1-1.1,0.2-1.7,0.3"/>
		<path class="st8" d="M485.9,407.3c-0.4,0.1-0.8,0.1-1.2,0.2"/>
		<path class="st8" d="M588.1,392.3c-0.9,0.1-1.7,0.2-2.6,0.3c-3.9,0.5-7.9,1-12,1.6c-39.3,5.2-63.9,9-79.9,11.7
			c-1.9,0.3-3.7,0.6-5.3,0.9"/>
		<path class="st9" d="M665.7,377.6c-2.8,2.8-6.9,5.2-12.2,6.6c-7.3,0.9-15.8,1.9-25.3,3.1"/>
		<path class="st8" d="M592.3,361.4c0.1,0.3,0.2,0.6,0.2,0.8c20,0,40,0,60,0c8.6-1,15.8,2,17,6"/>
		<path class="st8" d="M473.2,658c7.4,27.5,17.5,59.4,31.3,96.2c-11.3-3.2-136.1-39.5-196.2-109.5c-3.5-4-6.8-8.2-9.8-12.5
			c-26.4-37.6-38-68-38-68c-12.2-32.1-11.1-48.6-25-73c-2-3.5-4.1-6.9-6.4-10.1c-11.6-16.5-25.4-28.3-37.2-36.4
			c-1.9-1.3-3.7-2.5-5.4-3.6l-179-42c30-15.3,60-30.7,90-46c76.1-37.5,141.6-54.6,186-63c63.8-12.1,100.3-9.5,130-3
			c6.7,1.5,13.1,3.2,19.1,5c3.9,1.2,7.7,2.4,11.2,3.6c11.8,4.1,21.8,8.5,29.7,12.4c2.8-0.8,62.5-17.8,99,19
			c11.2,11.3,16.9,24.3,19.8,34.1"/>
		<path class="st9" d="M585.5,392.6c0.9-0.1,1.8-0.3,2.6-0.4c0.4-0.1,0.8-0.1,1.1-0.2c15.7-2.6,28.8-3.9,38.9-4.8
			c1-0.1,2-0.2,2.9-0.2c15.1-1.1,28.1-1.4,34.6-9.4c0.3-0.4,0.7-0.8,1-1.3c1.9-2.9,2.6-6,2.8-8.1"/>
		<path class="st9" d="M7.5,399.2c86.2-23.4,160.8-35.9,218.6-43.1c0,0,93.9-11.6,153.4,1.2c13,2.8,24.4,6.7,32.8,12.2
			c3.6,2.4,6.7,5,9.1,8c1.9,2.4,11.1,14.8,27.8,23.1c9.7,4.8,18.5,6.6,24,7.4"/>
		<line class="st11" x1="443.8" y1="295.8" x2="421.4" y2="377.5"/>
		<polyline class="st11" points="432.6,292.2 432.6,292.2 412.3,369.5 		"/>
		<path class="st11" d="M379.5,357.3c-1,3.3-2.1,7-3,11c-1.4,6-2.5,12.7-3,20c-1.5,21.2,2.4,38.6,5.9,49.9"/>
		<path class="st11" d="M191.9,444.8c8.2-12.9,33.9-49.2,83.5-68.6c45.6-17.9,85.7-11.3,101-8"/>
		<path class="st8" d="M229.1,481.1c84.5-24.9,109.5-26.6,111.8-20.9c0.7,1.6-0.3,4.3,1.2,10.3c2.1,8.3,5.3,8.6,6.2,14.9
			c1,7.1-2.6,9.5-0.2,14.9c1.6,3.5,3.3,3,4.6,6.6c1.5,4.3-0.5,6,0.3,11.7c0.6,4.4,1.9,4.1,3,8.9c1.2,5.7-0.4,7,0,13.6
			s2.1,6.1,3,13.6c0.9,7.6-0.7,9,0.3,15c1.2,7.1,4.5,11.1,5.4,13.1c3,6.5-5.3,22-56.6,62"/>
	</g>
</g>
</svg>
