<?xml version="1.0" encoding="utf-8"?>
<!-- Generator: Adobe Illustrator 23.1.0, SVG Export Plug-In . SVG Version: 6.00 Build 0)  -->
<svg version="1.1" xmlns="http://www.w3.org/2000/svg" xmlns:xlink="http://www.w3.org/1999/xlink" x="0px" y="0px"
	 viewBox="0 0 672.2 757.9" style="enable-background:new 0 0 672.2 757.9;" xml:space="preserve">
<style type="text/css">
	.st0{fill:#FFD22A;}
	.st1{fill:#009900;}
	.st2{fill:#FFFFFF;}
	.st3{fill:#00FF00;}
	.st4{fill:#6A4700;}
	.st5{fill:#9EA39F;}
	.st6{fill:#666666;}
	.st7{fill:none;stroke:#000000;stroke-width:5;stroke-linecap:round;stroke-linejoin:round;}
	.st8{fill:none;stroke:#000000;stroke-width:5;stroke-miterlimit:10;}
	.st9{fill:none;stroke:#000000;stroke-width:3;stroke-miterlimit:10;}
	.st10{fill:none;stroke:#000000;stroke-width:3;stroke-linecap:round;stroke-linejoin:round;}
	.st11{fill:none;stroke:#000000;stroke-width:0.5;stroke-linecap:round;stroke-linejoin:round;}
	.st12{fill:#005978;}
</style>
<g id="Слой_1">
</g>
<g id="Слой_2">
	<g>
		<g id="XMLID_2_">
			<g>
				<path class="st0" d="M669.2,368c0.8,2.5-0.5,6.2-3.8,9.4c0.3-0.4,0.7-0.8,1-1.3C668.3,373.2,668.9,370.2,669.2,368z"/>
				<path class="st0" d="M669.2,368l-74.5,10.8h0c0.8-7.6-1.7-14.7-2.5-16.8c20,0,40,0,60,0C660.8,361,668,364,669.2,368z
					 M604.4,370.6c0.4-0.6-0.4-1.8-1.6-2.5c-1.3-0.7-2.6-0.8-3-0.2c-0.4,0.6,0.4,1.8,1.6,2.5C602.7,371.2,604,371.3,604.4,370.6z"/>
				<path class="st0" d="M594.7,378.7l74.5-10.8c-9.6,4.4-9.9,4.6-9.9,4.6C654.2,374.9,638.9,377.4,594.7,378.7z"/>
				<path class="st0" d="M669.2,368c-0.3,2.2-0.9,5.2-2.8,8.1c-0.3,0.4-0.6,0.9-1,1.3c-2.8,2.8-6.9,5.2-12.2,6.6
					c-7.3,0.9-15.8,1.9-25.3,3c-10,0.8-23.2,2.2-38.9,4.8c0.9-1,1.7-2,2.3-3c2-3.2,3-6.7,3.4-10.1h0c44.2-1.3,59.6-3.9,64.6-6.2
					C659.3,372.6,659.6,372.4,669.2,368z"/>
				<path class="st0" d="M627.9,387c-11.5,1.4-24.6,3-39,4.9c0,0,0.1-0.1,0.1-0.1C604.7,389.2,617.8,387.8,627.9,387z"/>
				<path d="M602.7,368.2c1.3,0.7,2,1.9,1.6,2.5c-0.4,0.6-1.7,0.6-3-0.2c-1.3-0.7-2-1.9-1.6-2.5
					C600.1,367.3,601.5,367.4,602.7,368.2z"/>
				<path class="st1" d="M592.2,362c0.8,2.1,3.3,9.1,2.5,16.8c-0.3,3.4-1.3,6.8-3.4,10.1c-0.6,1-1.4,2-2.3,3
					c-0.4,0.1-0.8,0.1-1.1,0.2c1.4-10.3,2.7-20.5,4.1-30.8C592,361.4,592.1,361.7,592.2,362z"/>
				<path class="st1" d="M592,361.1c-1.4,10.3-2.7,20.5-4.1,30.8c-0.9,0.1-1.8,0.3-2.6,0.4c-3.9,0.5-7.9,1-12,1.6
					c-39.3,5.2-63.9,9-79.9,11.7c-9.2,1.6-15.5,2.8-20.1,3.7l-0.3-1.6c-5.5-0.8-14.3-2.5-24-7.4c-16.7-8.3-25.9-20.8-27.8-23.1
					l22.5-81.7c11.8,4.1,21.8,8.5,29.7,12.4c2.8-0.8,62.5-17.8,99,19C583.4,338.3,589.1,351.2,592,361.1z M567.3,354.2
					c3.1-2.2,3.1-7.6-0.1-12.2c-3.2-4.6-8.3-6.5-11.4-4.3c-3.1,2.2-3.1,7.6,0.1,12.2C559,354.4,564.1,356.3,567.3,354.2z"/>
				<path class="st2" d="M589,391.8c0,0-0.1,0.1-0.1,0.1c-0.3,0-0.7,0.1-1,0.1c0,0,0-0.1,0-0.1C588.2,391.9,588.6,391.8,589,391.8z"
					/>
				<path class="st2" d="M587.8,392.1c0.3,0,0.7-0.1,1-0.1c-0.4,0.4-0.7,0.8-1.1,1.2C587.7,392.7,587.8,392.4,587.8,392.1z"/>
				<path class="st3" d="M587.8,392c0,0,0,0.1,0,0.1c-0.9,0.1-1.7,0.2-2.6,0.3C586.1,392.2,587,392.1,587.8,392z"/>
				<path d="M567.2,341.9c3.2,4.6,3.2,10,0.1,12.2c-3.1,2.2-8.2,0.2-11.4-4.3c-3.2-4.6-3.2-10-0.1-12.2
					C558.9,335.4,564,337.4,567.2,341.9z"/>
				<path class="st4" d="M375.6,371.1c1-5.2,2.3-9.9,3.6-14c13,2.8,24.4,6.7,32.8,12.2c3.6,2.4,6.7,5,9.1,8
					c1.9,2.4,11.1,14.8,27.8,23.1c9.7,4.8,18.5,6.6,24,7.4l0.3,1.6c-3,0.6-5.2,1.1-7,1.6c-21.3,4.9-51.4,13.1-87,27
					c-3.5-11.3-7.4-28.7-5.9-49.9C373.7,381.9,374.5,376.2,375.6,371.1z"/>
				<path class="st5" d="M443.5,295.6L421,377.3c-2.4-3-5.5-5.6-9.1-8l20.3-77.4C436.2,293.1,439.9,294.4,443.5,295.6z"/>
				<path class="st6" d="M432.3,292L412,369.3c-8.4-5.5-19.8-9.5-32.8-12.2c-8-1.7-16.7-3-25.6-3.9l-0.6,0.6
					c-5.4-5-10.9-10.7-16-17.3c-3.5-4.6-6.9-9.6-10-15.1c-7.5-13.2-10.6-24-13.9-36.3c45.9-6.2,75.3-3.5,100,1.9
					C419.9,288.5,426.3,290.2,432.3,292z"/>
				<path class="st6" d="M429.5,288.2l2.8,3.7c-6-1.8-12.4-3.5-19.1-5c-24.7-5.4-54.1-8.1-100-1.9c-2.7-10.5-5.5-21.9-11.1-36.7
					c0,0-11.6-30.5-38-68c-16.2-23-39.6-42.7-65-59.2l-5-4C188,97.4,180.6,75.7,171.7,52c8.4,2.4,80.1,23.3,141,62.8
					c25.4,16.5,48.8,36.2,65,59.2c26.4,37.5,38,68,38,68C423.1,261.4,425.6,275.1,429.5,288.2z"/>
				<path class="st5" d="M379.2,357.1c-1.3,4.1-2.6,8.8-3.6,14c-6.8-4.4-14.7-10-22.6-17.3l0.6-0.6
					C362.5,354.1,371.2,355.3,379.2,357.1z"/>
				<path class="st5" d="M171.7,363.5c-1.2-1.2-2.4-2.4-3.6-3.7c-7.8-8.2-15.8-17.6-23.4-28.4c-11.1-15.8-21.3-34.4-28.7-56.1
					c-6.6-19.2-8.6-34.1-10-43c-5.8-38.3-18.4-95-48-174c8.4,2.4,80.1,23.3,141,62.8c25.4,16.5,48.8,36.2,65,59.2
					c26.4,37.5,38,68,38,68c5.6,14.8,8.4,26.2,11.1,36.7c3.2,12.3,6.3,23.1,13.9,36.3c3.1,5.5,6.5,10.5,10,15.1
					c5.1,6.6,10.5,12.3,16,17.3c7.9,7.3,15.7,12.9,22.6,17.3c-1,5.2-1.9,10.9-2.3,17c-1.5,21.2,2.4,38.6,5.9,49.9
					c-27,9.3-69.8,19.9-122.1,16.4c-27.9-1.9-51.9-7.4-70.9-13.4c-59.7-14-119.3-28-179-42C68.5,382.3,124,371.2,171.7,363.5z"/>
				<path class="st6" d="M168.2,359.9c1.2,1.3,2.4,2.5,3.6,3.7C124,371.2,68.5,382.3,7.2,399c30-15.3,60-30.7,90-46
					c16.4-8.1,32.3-15.2,47.6-21.5C152.4,342.2,160.4,351.7,168.2,359.9z"/>
			</g>
			<g>
				<path class="st7" d="M412,369.3l20.3-77.4l-2.8-3.7c-3.9-13.2-6.4-26.9-13.8-46.3c0,0-11.6-30.5-38-68
					c-16.2-23-39.6-42.7-65-59.2c-60.9-39.5-132.6-60.4-141-62.8c8.9,23.7,16.2,45.4,22.3,65.2"/>
				<path class="st8" d="M592.2,362c0.8,2.1,3.3,9.1,2.5,16.8c-0.3,3.4-1.3,6.8-3.4,10.1c-0.6,1-1.4,2-2.3,3c0,0-0.1,0.1-0.1,0.1
					c-0.4,0.4-0.7,0.8-1.1,1.2"/>
				<path class="st9" d="M594.7,378.7c44.2-1.3,59.6-3.9,64.6-6.2c0,0,0.3-0.2,9.9-4.6"/>
				<path class="st9" d="M599.8,368c0.4-0.6,1.7-0.6,3,0.2c1.3,0.7,2,1.9,1.6,2.5c-0.4,0.6-1.7,0.6-3-0.2
					C600.1,369.7,599.4,368.6,599.8,368z"/>
				<path class="st7" d="M555.8,349.8c-3.2-4.6-3.2-10-0.1-12.2c3.1-2.2,8.2-0.2,11.4,4.3c3.2,4.6,3.2,10,0.1,12.2
					C564.1,356.3,559,354.4,555.8,349.8z"/>
				<path class="st8" d="M379.2,357.1c-1.3,4.1-2.6,8.8-3.6,14c-1,5.2-1.9,10.9-2.3,17c-1.5,21.2,2.4,38.6,5.9,49.9
					c-27,9.3-69.8,19.9-122.1,16.4c-27.9-1.9-51.9-7.4-70.9-13.4c-59.7-14-119.3-28-179-42c30-15.3,60-30.7,90-46
					c16.4-8.1,32.3-15.2,47.6-21.5"/>
				<path class="st8" d="M587.8,392.1c-0.9,0.1-1.7,0.2-2.6,0.3c-3.9,0.5-7.9,1-12,1.6c-39.3,5.2-63.9,9-79.9,11.7
					c-9.2,1.6-15.5,2.8-20.1,3.7c-3,0.6-5.2,1.1-7,1.6c-21.3,4.9-51.4,13.1-87,27"/>
				<path class="st7" d="M665.4,377.4c-2.8,2.8-6.9,5.2-12.2,6.6c-7.3,0.9-15.8,1.9-25.3,3"/>
				<path class="st8" d="M313.2,285.1c45.9-6.2,75.3-3.5,100,1.9c6.7,1.5,13.1,3.2,19.1,5c3.9,1.2,7.7,2.4,11.2,3.6
					c11.8,4.1,21.8,8.5,29.7,12.4c2.8-0.8,62.5-17.8,99,19c11.2,11.3,16.9,24.3,19.8,34.2c0.1,0.3,0.2,0.6,0.2,0.8c20,0,40,0,60,0
					c8.6-1,15.8,2,17,6"/>
				<path class="st7" d="M585.2,392.4c0.9-0.1,1.8-0.3,2.6-0.4c0.4-0.1,0.8-0.1,1.1-0.2c15.7-2.5,28.8-3.9,38.9-4.8
					c1-0.1,2-0.2,2.9-0.2c15.1-1.1,28.1-1.4,34.6-9.4c0.3-0.4,0.7-0.8,1-1.3c1.9-2.9,2.6-6,2.8-8.1"/>
				<path class="st7" d="M353.6,353.1c8.9,0.9,17.6,2.2,25.6,3.9c13,2.8,24.4,6.7,32.8,12.2c3.6,2.4,6.7,5,9.1,8
					c1.9,2.4,11.1,14.8,27.8,23.1c9.7,4.8,18.5,6.6,24,7.4"/>
				<path class="st7" d="M7.2,399c61.3-16.7,116.8-27.8,164.5-35.4h0"/>
				<line class="st10" x1="443.5" y1="295.6" x2="421" y2="377.3"/>
				<path class="st7" d="M313.2,285.1c-2.7-10.5-5.5-21.9-11.1-36.7c0,0-11.6-30.5-38-68c-16.2-23-39.6-42.7-65-59.2
					c-60.9-39.5-132.6-60.4-141-62.8c29.6,79,42.2,135.7,48,174c1.4,8.9,3.4,23.8,10,43c7.4,21.7,17.7,40.3,28.7,56.1
					c7.6,10.8,15.6,20.2,23.4,28.4c1.2,1.3,2.4,2.5,3.6,3.7c3.9,3.9,7.7,7.5,11.4,10.8"/>
				<path class="st7" d="M376.1,371.4c-0.2-0.1-0.3-0.2-0.5-0.3c-6.8-4.4-14.7-10-22.6-17.3c-5.4-5-10.9-10.7-16-17.3
					c-3.5-4.6-6.9-9.6-10-15.1c-7.5-13.2-10.6-24-13.9-36.3"/>
				<line class="st11" x1="194.1" y1="117.2" x2="199.1" y2="121.2"/>
			</g>
		</g>
		<g id="XMLID_3_">
			<g>
				<path class="st12" d="M316.5,257.4c0.4,1.8-1.8,4.4-8.5,8.5l1.6,5.6c-8.9-21.6-20.3-45.5-35.1-70.4
					c-8.5-14.3-17.2-27.4-25.7-39.3l3.4,3.7c18,2.1,23.5,5.7,24.3,9.1c0.3,1.6,0.2,5.4,2.6,10.1c2,4,3.6,4.1,6.4,8.9
					c2.8,4.8,1.6,5.3,4.3,9.4c2.7,4.1,4.3,4.1,6,8c1.5,3.3,0.6,3.7,2.2,6.6c2,3.7,4,3.9,5,7c0.8,2.7-0.4,3.2,0.2,5.9
					c0.9,4.3,4.1,4,6.7,8.7c2.2,4.1,0.4,5.7,2.9,11.5C314.4,255,316.2,256.1,316.5,257.4z"/>
			</g>
			<g>
				<path class="st7" d="M309.6,271.4l-1.6-5.6c6.7-4.1,9-6.7,8.5-8.5c-0.3-1.3-2.1-2.4-3.8-6.6c-2.4-5.8-0.6-7.4-2.9-11.5
					c-2.5-4.6-5.8-4.4-6.7-8.7c-0.6-2.7,0.6-3.3-0.2-5.9c-1-3.2-2.9-3.3-5-7c-1.6-2.9-0.7-3.3-2.2-6.6c-1.8-3.9-3.3-3.9-6-8
					c-2.7-4.1-1.5-4.6-4.3-9.4c-2.8-4.9-4.4-5-6.4-8.9c-2.4-4.7-2.2-8.5-2.6-10.1c-0.7-3.4-6.3-7-24.3-9.1l-3.4-3.7"/>
				<path class="st7" d="M248.8,161.7c8.5,11.9,17.2,25,25.7,39.3c14.8,24.9,26.2,48.8,35.1,70.4"/>
			</g>
		</g>
		<path class="st7" d="M252.2,165.4"/>
	</g>
</g>
</svg>
