<?xml version="1.0" encoding="utf-8"?>
<!-- Generator: Adobe Illustrator 23.1.0, SVG Export Plug-In . SVG Version: 6.00 Build 0)  -->
<svg version="1.1" xmlns="http://www.w3.org/2000/svg" xmlns:xlink="http://www.w3.org/1999/xlink" x="0px" y="0px"
	 viewBox="0 0 672.2 757.9" style="enable-background:new 0 0 672.2 757.9;" xml:space="preserve">
<style type="text/css">
	.st0{fill:#6A4700;}
	.st1{fill:#005978;}
	.st2{fill:#666666;}
	.st3{fill:#9EA39F;}
	.st4{fill:#FFD22A;}
	.st5{fill:#009900;}
	.st6{fill:#FFFFFF;}
	.st7{fill:#00FF00;}
	.st8{fill:none;stroke:#000000;stroke-width:5;stroke-miterlimit:10;}
	.st9{fill:none;stroke:#000000;stroke-width:3;stroke-miterlimit:10;}
	.st10{fill:none;stroke:#000000;stroke-width:5;stroke-linecap:round;stroke-linejoin:round;}
	.st11{fill:none;stroke:#000000;stroke-width:3;stroke-linecap:round;stroke-linejoin:round;}
</style>
<g id="Слой_1">
</g>
<g id="Слой_2">
	<g id="XMLID_2_">
		<g>
			<path class="st0" d="M418.8,377.7c1.9,2.4,11.1,14.8,27.8,23.1c9.7,4.8,18.5,6.6,24,7.4l0.3,1.6c-3,0.6-5.2,1.1-7,1.6
				c-59.3,14.2-77.4,21.4-87,27c-3.6-11.3-7.4-28.7-5.9-49.9c0.5-7.4,1.6-14.1,3-20c0.9-4,1.9-7.7,3-11c13,2.8,24.4,6.7,32.8,12.2
				C413.4,372.1,416.4,374.8,418.8,377.7z"/>
			<path class="st1" d="M185.8,440c0.5-0.6,1-1.3,1.6-2l0.8,0.4c33.6,20.3,41.1,28.2,39.4,30.9c-0.5,0.8-1.9,1.3-3.9,3.9
				c-2.9,3.5-2.1,4.7-4.5,7.1c-2.7,2.7-4.7,2.3-6.2,4.9c-1,1.7-0.4,2.1-1.5,3.8c-1.4,1.9-2.6,1.8-4.8,4c-1.7,1.7-1.2,2-2.9,4
				c-2,2.3-3,2.2-5.7,4.6c-2.6,2.4-2,2.8-4.9,5.6c-2.9,2.9-3.9,2.8-6.1,5.1c-2.6,2.8-3.4,5.3-3.9,6.2c-1.9,3.2-10.6,5.6-41.3,1.6
				l-1.3-0.7C155.8,493,170.8,466.5,185.8,440z"/>
			<path class="st2" d="M373.9,368.4l0.2,0c-1.4,6-2.5,12.7-3,20c-1.5,21.2,2.4,38.6,5.9,49.9c-6,3.5-10.2,6.4-18.5,12.2
				c-24.8,17.3-41,32.6-45.6,36.8c-37.6,34.6-104.7,72.8-116,79.2c-27.6,15.7-65.4,35-112.8,52.8c18.9-33.3,37.8-66.6,56.7-99.9
				l1.3,0.7c30.7,4,39.4,1.6,41.3-1.6c0.6-1,1.3-3.4,3.9-6.2c2.2-2.4,3.2-2.3,6.1-5.1c2.9-2.8,2.2-3.2,4.9-5.6
				c2.6-2.4,3.6-2.3,5.7-4.6c1.7-2,1.2-2.3,2.9-4c2.2-2.2,3.4-2.1,4.8-4c1.1-1.7,0.5-2.1,1.5-3.8c1.5-2.6,3.5-2.2,6.2-4.9
				c2.4-2.4,1.6-3.6,4.5-7.1c2.1-2.5,3.4-3.1,3.9-3.9c1.7-2.7-5.9-10.6-39.4-30.9l-0.8-0.4c11.6-14.7,39-44.9,85.5-61.6
				C317.8,360.1,356.8,365.2,373.9,368.4z"/>
			<path class="st3" d="M377,357.5c-1,3.3-2.1,7-3,11l-0.2,0c-17.1-3.3-56-8.3-101,7.9c-46.4,16.8-73.9,47-85.5,61.6
				c-0.6,0.7-1.1,1.4-1.6,2C125.6,426.5,65.3,412.9,5,399.4c86.2-23.4,160.8-35.9,218.6-43.1C223.6,356.3,317.5,344.7,377,357.5z"/>
			<path class="st4" d="M667,368.4c0.8,2.5-0.5,6.2-3.8,9.4c0.3-0.4,0.7-0.8,1-1.3C666.1,373.6,666.7,370.6,667,368.4z"/>
			<path class="st4" d="M667,368.4l-74.5,10.8h0c0.8-7.6-1.7-14.6-2.5-16.8c20,0,40,0,60,0C658.6,361.4,665.8,364.4,667,368.4z
				 M602.2,371.1c0.4-0.6-0.4-1.8-1.6-2.5c-1.3-0.7-2.6-0.8-3-0.2c-0.4,0.6,0.4,1.8,1.6,2.5C600.5,371.6,601.8,371.7,602.2,371.1z"
				/>
			<path class="st4" d="M592.5,379.2l74.5-10.8c-9.6,4.4-9.9,4.6-9.9,4.6C652,375.3,636.7,377.8,592.5,379.2z"/>
			<path class="st4" d="M667,368.4c-0.3,2.2-0.9,5.2-2.8,8.1c-0.3,0.5-0.6,0.9-1,1.3c-2.8,2.8-6.9,5.2-12.2,6.6
				c-7.3,0.9-15.8,1.9-25.3,3c-10,0.8-23.2,2.2-38.9,4.8c0.9-1,1.7-2,2.3-3c2-3.2,3-6.7,3.4-10.1h0c44.2-1.3,59.6-3.9,64.6-6.2
				C657,373,657.4,372.8,667,368.4z"/>
			<path class="st4" d="M625.7,387.5c-11.5,1.4-24.6,3-39,4.9c0.1,0,0.1-0.1,0.1-0.1C602.5,389.7,615.6,388.3,625.7,387.5z"/>
			<path d="M600.5,368.6c1.3,0.7,2,1.9,1.6,2.5c-0.4,0.6-1.7,0.6-3-0.2c-1.3-0.7-2-1.9-1.6-2.5C597.9,367.8,599.2,367.8,600.5,368.6
				z"/>
			<path class="st5" d="M590,362.4c0.8,2.1,3.3,9.1,2.5,16.8c-0.3,3.4-1.3,6.8-3.4,10.1c-0.6,1-1.4,2-2.3,3
				c-0.4,0.1-0.8,0.1-1.1,0.2c1.4-10.3,2.7-20.5,4.1-30.8C589.8,361.9,589.9,362.1,590,362.4z"/>
			<path class="st5" d="M589.7,361.6c-1.4,10.3-2.7,20.5-4.1,30.8c-0.9,0.1-1.8,0.3-2.6,0.4c-3.9,0.5-7.9,1-12,1.6
				c-39.3,5.2-63.9,9-79.9,11.7c-9.2,1.6-15.5,2.8-20.1,3.7l-0.3-1.6c-5.5-0.8-14.3-2.5-24-7.4c-16.7-8.3-25.9-20.8-27.8-23.1
				l22.5-81.7c11.8,4.1,21.8,8.5,29.7,12.4c2.8-0.8,62.5-17.8,99,19C581.2,338.7,586.9,351.7,589.7,361.6z M565,354.6
				c3.1-2.2,3.1-7.6-0.1-12.2c-3.2-4.6-8.3-6.5-11.4-4.3c-3.1,2.2-3.1,7.6,0.1,12.2C556.8,354.8,561.9,356.8,565,354.6z"/>
			<path class="st6" d="M586.8,392.2c0,0.1-0.1,0.1-0.1,0.1c-0.3,0-0.7,0.1-1,0.1c0,0,0-0.1,0-0.1
				C586,392.3,586.4,392.3,586.8,392.2z"/>
			<path class="st6" d="M585.6,392.5c0.3,0,0.7-0.1,1-0.1c-0.4,0.4-0.7,0.8-1.1,1.2C585.5,393.2,585.6,392.8,585.6,392.5z"/>
			<path class="st7" d="M585.6,392.4c0,0,0,0.1,0,0.1c-0.9,0.1-1.7,0.2-2.6,0.3C583.9,392.7,584.8,392.5,585.6,392.4z"/>
			<path d="M564.9,342.4c3.2,4.6,3.2,10,0.1,12.2c-3.1,2.2-8.2,0.2-11.4-4.3c-3.2-4.6-3.2-10.1-0.1-12.2
				C556.6,335.9,561.8,337.8,564.9,342.4z"/>
			<path class="st3" d="M441.3,296l-22.5,81.7c-2.4-3-5.5-5.6-9.1-8l20.3-77.4C434,293.6,437.7,294.8,441.3,296z"/>
			<path class="st2" d="M430.1,292.4l-20.3,77.4c-8.4-5.5-19.8-9.4-32.8-12.2c-59.5-12.8-153.4-1.2-153.4-1.2
				C165.8,363.5,91.2,376,5,399.4c30-15.3,60-30.7,90-46c76.1-37.5,141.6-54.6,186-63c63.8-12.1,100.3-9.5,130-3
				C417.7,288.9,424.1,290.6,430.1,292.4z"/>
		</g>
		<g>
			<path class="st8" d="M590,362.4c0.8,2.1,3.3,9.1,2.5,16.8c-0.3,3.4-1.3,6.8-3.4,10.1c-0.6,1-1.4,2-2.3,3c0,0.1-0.1,0.1-0.1,0.1
				c-0.4,0.4-0.7,0.8-1.1,1.2"/>
			<path class="st9" d="M592.5,379.2c44.2-1.3,59.6-3.9,64.6-6.2c0,0,0.3-0.2,9.9-4.6"/>
			<path class="st9" d="M597.5,368.4c0.4-0.6,1.7-0.6,3,0.2c1.3,0.7,2,1.9,1.6,2.5c-0.4,0.6-1.7,0.6-3-0.2
				C597.9,370.2,597.2,369,597.5,368.4z"/>
			<path class="st10" d="M553.6,350.3c-3.2-4.6-3.2-10.1-0.1-12.2c3.1-2.2,8.2-0.2,11.4,4.3c3.2,4.6,3.2,10,0.1,12.2
				C561.9,356.8,556.8,354.8,553.6,350.3z"/>
			<path class="st8" d="M585.6,392.5c-0.9,0.1-1.7,0.2-2.6,0.3c-3.9,0.5-7.9,1-12,1.6c-39.3,5.2-63.9,9-79.9,11.7
				c-9.2,1.6-15.5,2.8-20.1,3.7c-3,0.6-5.2,1.1-7,1.6c-59.3,14.2-77.4,21.4-87,27c-6,3.5-10.2,6.4-18.5,12.2
				c-24.8,17.3-41,32.6-45.6,36.8c-37.6,34.6-104.7,72.8-116,79.2c-27.6,15.7-65.4,35-112.8,52.8c18.9-33.3,37.8-66.6,56.7-99.9
				c15-26.5,30.1-53,45.1-79.4C125.6,426.5,65.3,412.9,5,399.4c30-15.3,60-30.7,90-46c76.1-37.5,141.6-54.6,186-63
				c63.8-12.1,100.3-9.5,130-3c6.7,1.5,13.1,3.2,19.1,5c3.9,1.2,7.7,2.4,11.2,3.6c11.8,4.1,21.8,8.5,29.7,12.4
				c2.8-0.8,62.5-17.8,99,19c11.2,11.3,16.9,24.3,19.8,34.2c0.1,0.3,0.2,0.6,0.2,0.8c20,0,40,0,60,0c8.6-1,15.8,2,17,6"/>
			<path class="st10" d="M663.2,377.8c-2.8,2.8-6.9,5.2-12.2,6.6c-7.3,0.9-15.8,1.9-25.3,3"/>
			<path class="st10" d="M583,392.8c0.9-0.1,1.8-0.3,2.6-0.4c0.4-0.1,0.8-0.1,1.1-0.2c15.7-2.5,28.8-3.9,38.9-4.8
				c1-0.1,2-0.2,2.9-0.2c15.1-1.1,28.1-1.4,34.6-9.4c0.3-0.4,0.7-0.8,1-1.3c1.9-2.9,2.6-6,2.8-8.1"/>
			<path class="st10" d="M5,399.4c86.2-23.4,160.8-35.9,218.6-43.1c0,0,93.9-11.6,153.4,1.2c13,2.8,24.4,6.7,32.8,12.2
				c3.6,2.4,6.7,5,9.1,8c1.9,2.4,11.1,14.8,27.8,23.1c9.7,4.8,18.5,6.6,24,7.4"/>
			<line class="st11" x1="441.3" y1="296" x2="418.8" y2="377.7"/>
			<line class="st11" x1="430.1" y1="292.4" x2="409.8" y2="369.7"/>
			<path class="st11" d="M377,357.5c-1,3.3-2.1,7-3,11c-1.4,6-2.5,12.7-3,20c-1.5,21.2,2.4,38.6,5.9,49.9"/>
			<path class="st11" d="M185.8,440c0.5-0.6,1-1.3,1.6-2c11.6-14.7,39-44.9,85.5-61.6c44.9-16.2,83.9-11.2,101-7.9"/>
			<path class="st8" d="M188.2,438.4c33.6,20.3,41.1,28.2,39.4,30.9c-0.5,0.8-1.9,1.3-3.9,3.9c-2.9,3.5-2.1,4.7-4.5,7.1
				c-2.7,2.7-4.7,2.3-6.2,4.9c-1,1.7-0.4,2.1-1.5,3.8c-1.4,1.9-2.6,1.8-4.8,4c-1.7,1.7-1.2,2-2.9,4c-2,2.3-3,2.2-5.7,4.6
				c-2.6,2.4-2,2.8-4.9,5.6c-2.9,2.9-3.9,2.8-6.1,5.1c-2.6,2.8-3.4,5.3-3.9,6.2c-1.9,3.2-10.6,5.6-41.3,1.6"/>
		</g>
	</g>
</g>
</svg>
