<?xml version="1.0" encoding="utf-8"?>
<!-- Generator: Adobe Illustrator 23.1.0, SVG Export Plug-In . SVG Version: 6.00 Build 0)  -->
<svg version="1.1" id="Слой_1" xmlns="http://www.w3.org/2000/svg" xmlns:xlink="http://www.w3.org/1999/xlink" x="0px" y="0px"
	 viewBox="0 0 1421.7 223.5" style="enable-background:new 0 0 1421.7 223.5;" xml:space="preserve">
<style type="text/css">
	.st0{fill:#FFEA2A;}
	.st1{fill:none;stroke:#000000;stroke-width:5;stroke-miterlimit:10;}
</style>
<g id="Слой_3">
</g>
<g id="Слой_3_1_">
</g>
<g id="Слой_3_2_">
</g>
<g id="Слой_3_3_">
</g>
<g id="Слой_3_4_">
</g>
<g id="Слой_3_5_">
</g>
<g id="Слой_3_6_">
</g>
<g>
	<g id="XMLID_1_">
		<g>
			<path class="st0" d="M1427.5,76.5c0,48.9,0,97.9,0,146.8H-72.4V76.5c10.6-16.5,21.1-33,31.7-49.5c9.5,14.7,19.1,29.4,28.6,44.1
				c7-8.4,14-16.8,21-25.2C19.6,54,30.4,62.1,41.2,70.2C43.1,52.5,45,34.7,46.9,17c7.9,20.2,15.9,40.3,23.8,60.5
				c6.4-11.5,12.7-22.9,19.1-34.4c7.3,12.6,14.6,25.2,21.9,37.8c13.3-19.2,26.7-38.4,40-57.7c7.6,17.1,15.3,34.2,22.9,51.3
				C186.5,63,198.2,51.3,210,39.6c6.7,10.8,13.3,21.6,20,32.4c8.9-18.3,17.8-36.6,26.7-54.9c7,19.2,14,38.4,21,57.6
				c7.6-8.5,15.2-17,22.8-25.5c8.2,8.1,16.4,16.3,24.6,24.4c9.3-13.4,18.6-26.9,27.8-40.3c4.6,13.5,9.3,26.9,13.9,40.4
				c7.1-19.8,14.2-39.6,21.3-59.3c11.4,20.4,22.9,40.8,34.3,61.3c8.9-11.7,17.8-23.4,26.7-35.1c6.7,11.1,13.3,22.2,20,33.3
				c9.8-16.8,19.7-33.6,29.5-50.5c6.7,17.1,13.3,34.2,20,51.3c7-22.5,14-45,21-67.6c10.5,21.6,21,43.2,31.5,64.9
				c9.2-6.6,18.4-13.2,27.6-19.8c5.7,7.8,11.4,15.6,17.2,23.4c12.7-19.8,25.4-39.6,38.1-59.5c5.7,20.4,11.4,40.8,17.2,61.3
				c6-5.7,12.1-11.4,18.1-17.1c8.9,4.2,17.8,8.4,26.7,12.6c-1-14.1-1.9-28.2-2.9-42.3c18.8,12,37.5,24,56.2,36
				c10.5-18,21-36,31.5-54.1c10.2,19.5,20.3,39,30.5,58.6c14-9.9,28-19.8,41.9-29.7c7,11.4,14,22.8,21,34.2
				c9.2-6.9,18.4-13.8,27.7-20.7c4.1,5.4,8.3,10.8,12.4,16.2c20-12,40-24,60.1-36c7.6,13.5,15.3,27,22.9,40.5
				c8.6-22.5,17.2-45,25.7-67.6c9.5,20.4,19.1,40.8,28.6,61.3c6.7-15.6,13.3-31.2,20-46.9c8.2,16,16.5,32,24.7,48
				c9.2-8.2,18.5-16.4,27.7-24.5c10.5,7.5,21,15,31.5,22.5c3.9-21.3,7.7-42.7,11.6-64c7.6,23.1,15.2,46.3,22.7,69.4
				c9.5-8.1,19.1-16.2,28.6-24.3c3.5,7.8,7,15.7,10.4,23.5c7.6-17.5,15.2-35.1,22.8-52.6c8,16.6,16,33.2,24,49.8
				c7.3-12.3,14.6-24.6,21.9-36.9c5.4,10.8,10.8,21.6,16.2,32.4c10.2-10.5,20.3-21,30.5-31.5c2.2,13.8,4.5,27.5,6.7,41.2
				c13.3-9.5,26.7-19.1,40-28.6C1416.7,56.7,1422.1,66.6,1427.5,76.5z"/>
		</g>
		<g>
			<path class="st1" d="M1187.3,4.4c7.6,23.1,15.2,46.3,22.7,69.4c9.5-8.1,19.1-16.2,28.6-24.3c3.5,7.8,7,15.7,10.4,23.5
				c7.6-17.5,15.2-35.1,22.8-52.6c8,16.6,16,33.2,24,49.8c7.3-12.3,14.6-24.6,21.9-36.9c5.4,10.8,10.8,21.6,16.2,32.4
				c10.2-10.5,20.3-21,30.5-31.5c2.2,13.8,4.5,27.5,6.7,41.2c13.3-9.5,26.7-19.1,40-28.6c5.4,9.9,10.8,19.8,16.3,29.7"/>
			<path class="st1" d="M-72.4,76.5c10.6-16.5,21.1-33,31.7-49.5c9.5,14.7,19.1,29.4,28.6,44.1c7-8.4,14-16.8,21-25.2
				C19.6,54,30.4,62.1,41.2,70.2C43.1,52.5,45,34.7,46.9,17c7.9,20.2,15.9,40.3,23.8,60.5c6.4-11.5,12.7-22.9,19.1-34.4
				c7.3,12.6,14.6,25.2,21.9,37.8c13.3-19.2,26.7-38.4,40-57.7c7.6,17.1,15.3,34.2,22.9,51.3C186.5,63,198.2,51.3,210,39.6
				c6.7,10.8,13.3,21.6,20,32.4c8.9-18.3,17.8-36.6,26.7-54.9c7,19.2,14,38.4,21,57.6c7.6-8.5,15.2-17,22.8-25.5
				c8.2,8.1,16.4,16.3,24.6,24.4c9.3-13.4,18.6-26.9,27.8-40.3c4.6,13.5,9.3,26.9,13.9,40.4c7.1-19.8,14.2-39.6,21.3-59.3
				c11.4,20.4,22.9,40.8,34.3,61.3c8.9-11.7,17.8-23.4,26.7-35.1c6.7,11.1,13.3,22.2,20,33.3c9.8-16.8,19.7-33.6,29.5-50.5
				c6.7,17.1,13.3,34.2,20,51.3c7-22.5,14-45,21-67.6c10.5,21.6,21,43.2,31.5,64.9c9.2-6.6,18.4-13.2,27.6-19.8
				c5.7,7.8,11.4,15.6,17.2,23.4c12.7-19.8,25.4-39.6,38.1-59.5c5.7,20.4,11.4,40.8,17.2,61.3c6-5.7,12.1-11.4,18.1-17.1
				c8.9,4.2,17.8,8.4,26.7,12.6c-1-14.1-1.9-28.2-2.9-42.3c18.8,12,37.5,24,56.2,36c10.5-18,21-36,31.5-54.1
				c10.2,19.5,20.3,39,30.5,58.6c14-9.9,28-19.8,41.9-29.7c7,11.4,14,22.8,21,34.2c9.2-6.9,18.4-13.8,27.7-20.7
				c4.1,5.4,8.3,10.8,12.4,16.2c20-12,40-24,60.1-36c7.6,13.5,15.3,27,22.9,40.5c8.6-22.5,17.2-45,25.7-67.6
				c9.5,20.4,19.1,40.8,28.6,61.3c6.7-15.6,13.3-31.2,20-46.9c8.2,16,16.5,32,24.7,48c9.2-8.2,18.5-16.4,27.7-24.5
				c10.5,7.5,21,15,31.5,22.5c3.9-21.3,7.7-42.7,11.6-64v0"/>
		</g>
	</g>
</g>
</svg>
